<?xml version="1.0" encoding="UTF-8" standalone="no"?>
<svg
   xmlns:dc="http://purl.org/dc/elements/1.1/"
   xmlns:cc="http://creativecommons.org/ns#"
   xmlns:rdf="http://www.w3.org/1999/02/22-rdf-syntax-ns#"
   xmlns:svg="http://www.w3.org/2000/svg"
   xmlns="http://www.w3.org/2000/svg"
   viewBox="0 0 185.98 110.47867"
   height="110.47867"
   width="185.98"
   xml:space="preserve"
   id="svg2"
   version="1.1"><metadata
     id="metadata8"><rdf:RDF><cc:Work
         rdf:about=""><dc:format>image/svg+xml</dc:format><dc:type
           rdf:resource="http://purl.org/dc/dcmitype/StillImage" /></cc:Work></rdf:RDF></metadata><defs
     id="defs6"><clipPath
       id="clipPath18"
       clipPathUnits="userSpaceOnUse"><path
         id="path16"
         d="M 0,82.859 H 139.485 V 0 H 0 Z" /></clipPath><linearGradient
       id="linearGradient60"
       spreadMethod="pad"
       gradientTransform="matrix(0,6.590004,-6.590004,0,25.490589,76.26899)"
       gradientUnits="userSpaceOnUse"
       y2="0"
       x2="1"
       y1="0"
       x1="0"><stop
         id="stop56"
         offset="0"
         style="stop-opacity:1;stop-color:#f9c236" /><stop
         id="stop58"
         offset="1"
         style="stop-opacity:1;stop-color:#f6da37" /></linearGradient><linearGradient
       id="linearGradient80"
       spreadMethod="pad"
       gradientTransform="matrix(0,5.280448,-5.280448,0,35.152592,73.628204)"
       gradientUnits="userSpaceOnUse"
       y2="0"
       x2="1"
       y1="0"
       x1="0"><stop
         id="stop76"
         offset="0"
         style="stop-opacity:1;stop-color:#f9c236" /><stop
         id="stop78"
         offset="1"
         style="stop-opacity:1;stop-color:#f6da37" /></linearGradient><clipPath
       id="clipPath90"
       clipPathUnits="userSpaceOnUse"><path
         id="path88"
         d="M 0,82.859 H 139.485 V 0 H 0 Z" /></clipPath><linearGradient
       id="linearGradient302"
       spreadMethod="pad"
       gradientTransform="matrix(-4.6598363,4.6598363,-4.6598363,-4.6598363,17.56407,73.938553)"
       gradientUnits="userSpaceOnUse"
       y2="0"
       x2="1"
       y1="0"
       x1="0"><stop
         id="stop298"
         offset="0"
         style="stop-opacity:1;stop-color:#f9c236" /><stop
         id="stop300"
         offset="1"
         style="stop-opacity:1;stop-color:#f6da37" /></linearGradient><clipPath
       id="clipPath312"
       clipPathUnits="userSpaceOnUse"><path
         id="path310"
         d="M 0,82.859 H 139.485 V 0 H 0 Z" /></clipPath><clipPath
       id="clipPath414"
       clipPathUnits="userSpaceOnUse"><path
         id="path412"
         d="M 0,82.859 H 139.485 V 0 H 0 Z" /></clipPath></defs><g
     transform="matrix(1.3333333,0,0,-1.3333333,0,110.47867)"
     id="g10"><g
       id="g12"><g
         clip-path="url(#clipPath18)"
         id="g14"><g
           transform="translate(39.1946,72.0688)"
           id="g20"><path
             id="path22"
             style="fill:#404490;fill-opacity:1;fill-rule:nonzero;stroke:none"
             d="M 0,0 C 0,0.823 0.449,1.235 1.235,1.235 H 2.282 C 3.105,1.235 3.516,0.823 3.516,0 v -2.169 c 0,-0.786 -0.111,-1.422 -0.111,-1.422 h 0.074 c 0.823,2.506 2.955,4.976 5.799,4.976 0.86,0 1.197,-0.412 1.197,-1.235 v -1.048 c 0,-0.823 -0.487,-1.234 -1.347,-1.234 -3.703,0 -5.499,-4.003 -5.499,-7.744 v -6.584 c 0,-0.823 -0.412,-1.234 -1.235,-1.234 H 1.235 C 0.449,-17.694 0,-17.283 0,-16.46 Z" /></g><g
           transform="translate(52.511,72.0688)"
           id="g24"><path
             id="path26"
             style="fill:#404490;fill-opacity:1;fill-rule:nonzero;stroke:none"
             d="M 0,0 C 0,0.823 0.449,1.235 1.235,1.235 H 2.282 C 3.105,1.235 3.516,0.823 3.516,0 v -1.683 c 0,-0.561 -0.111,-1.086 -0.111,-1.086 h 0.074 c 0.748,1.647 3.03,4.453 7.183,4.453 4.452,0 6.472,-2.433 6.472,-7.258 V -16.46 c 0,-0.823 -0.412,-1.234 -1.235,-1.234 H 14.74 c -0.786,0 -1.235,0.411 -1.235,1.234 v 10.063 c 0,2.656 -0.523,4.751 -3.554,4.751 -3.666,0 -6.322,-3.067 -6.322,-6.996 v -7.818 c 0,-0.823 -0.412,-1.234 -1.235,-1.234 H 1.235 C 0.449,-17.694 0,-17.283 0,-16.46 Z" /></g><g
           transform="translate(84.3816,66.0459)"
           id="g28"><path
             id="path30"
             style="fill:#404490;fill-opacity:1;fill-rule:nonzero;stroke:none"
             d="m 0,0 h 0.972 v 0.487 c 0,3.104 -1.795,4.152 -4.115,4.152 -1.87,0 -3.404,-0.711 -4.265,-1.198 -0.709,-0.336 -1.271,-0.224 -1.683,0.45 l -0.298,0.523 c -0.375,0.711 -0.262,1.31 0.411,1.683 1.122,0.637 3.254,1.61 6.134,1.61 4.715,0 7.446,-2.619 7.446,-7.407 v -10.737 c 0,-0.823 -0.45,-1.235 -1.235,-1.235 H 2.432 c -0.786,0 -1.235,0.412 -1.235,1.235 v 1.122 c 0,0.711 0.112,1.16 0.112,1.16 H 1.235 c 0,0 -1.759,-3.965 -6.174,-3.965 -3.328,0 -6.359,2.057 -6.359,5.611 C -11.298,-0.636 -3.928,0 0,0 m -4.115,-9.24 c 3.18,0 5.125,3.217 5.125,6.022 v 0.825 H 0.037 c -2.656,0 -7.668,-0.226 -7.668,-3.817 0,-1.496 1.197,-3.03 3.516,-3.03" /></g><g
           transform="translate(93.3587,49.9975)"
           id="g32"><path
             id="path34"
             style="fill:#404490;fill-opacity:1;fill-rule:nonzero;stroke:none"
             d="m 0,0 c 0.374,-0.15 0.86,-0.412 1.496,-0.412 1.534,0 2.656,1.347 3.255,2.844 l 0.935,2.169 -7.332,17.284 c -0.375,0.86 0.037,1.421 0.935,1.421 h 1.459 c 0.711,0 1.159,-0.299 1.384,-0.973 L 6.584,10.923 C 6.921,9.988 7.258,8.642 7.258,8.642 h 0.074 c 0,0 0.299,1.271 0.636,2.245 l 4.302,11.409 c 0.225,0.711 0.636,1.01 1.384,1.01 h 1.347 c 0.898,0 1.309,-0.561 0.973,-1.421 L 7.631,1.047 C 6.509,-1.908 4.152,-3.479 1.496,-3.479 c -1.084,0 -1.983,0.337 -2.618,0.598 -0.711,0.299 -0.861,0.973 -0.562,1.609 l 0.299,0.636 C -1.085,0.038 -0.524,0.149 0,0" /></g><g
           transform="translate(31.2356,62.9897)"
           id="g36"><path
             id="path38"
             style="fill:#404490;fill-opacity:1;fill-rule:nonzero;stroke:none"
             d="m 0,0 c -0.488,-3.284 -3.11,-5.544 -6.273,-5.544 -3.131,0 -5.778,2.26 -6.272,5.544 h -3.613 c 0.54,-5.05 4.734,-8.616 9.885,-8.616 5.151,0 9.378,3.566 9.921,8.616 z" /></g><g
           transform="translate(18.6814,65.1362)"
           id="g40"><path
             id="path42"
             style="fill:#f9c236;fill-opacity:1;fill-rule:nonzero;stroke:none"
             d="M 0,0 C 0.469,3.285 3.13,5.544 6.281,5.544 9.465,5.544 12.1,3.285 12.563,0 H 16.21 C 15.697,5.052 11.455,8.617 6.281,8.617 1.107,8.617 -3.103,5.052 -3.612,0 Z" /></g></g></g><g
       id="g44"><g
         id="g46"><g
           id="g52"><g
             id="g54"><path
               id="path62"
               style="fill:url(#linearGradient60);stroke:none"
               d="m 25.294,82.859 c -0.323,0 -0.588,-0.266 -0.588,-0.589 v 0 -5.415 c 0,-0.323 0.265,-0.586 0.588,-0.586 v 0 h 0.393 c 0.324,0 0.588,0.263 0.588,0.586 v 0 5.415 c 0,0.323 -0.264,0.589 -0.588,0.589 v 0 z" /></g></g></g></g><g
       id="g64"><g
         id="g66"><g
           id="g72"><g
             id="g74"><path
               id="path82"
               style="fill:url(#linearGradient80);stroke:none"
               d="M 36.512,78.736 32.683,74.91 c -0.228,-0.23 -0.228,-0.604 0,-0.832 v 0 L 32.962,73.8 c 0.228,-0.23 0.603,-0.23 0.83,0 v 0 l 3.829,3.828 c 0.229,0.228 0.229,0.602 0,0.83 v 0 l -0.278,0.278 c -0.114,0.116 -0.265,0.172 -0.416,0.172 v 0 c -0.15,0 -0.301,-0.056 -0.415,-0.172" /></g></g></g></g><g
       id="g84"><g
         clip-path="url(#clipPath90)"
         id="g86"><g
           transform="translate(8.8055,37.6445)"
           id="g92"><path
             id="path94"
             style="fill:#404490;fill-opacity:1;fill-rule:nonzero;stroke:none"
             d="m 0,0 v -5.345 h -0.975 v 5.298 c 0,1.241 -0.543,1.752 -1.226,1.752 -0.495,0 -1.13,-0.294 -1.548,-0.867 C -3.703,0.589 -3.688,0.31 -3.688,0 v -5.345 h -0.976 v 5.298 c 0,1.241 -0.527,1.752 -1.208,1.752 -0.527,0 -1.099,-0.325 -1.503,-0.79 v -6.26 h -0.976 v 7.747 h 0.884 V 1.411 h 0.03 c 0.558,0.728 1.302,1.115 1.905,1.115 0.807,0 1.396,-0.372 1.673,-1.255 0.621,0.883 1.396,1.255 2.016,1.255 C -0.729,2.526 0,1.798 0,0" /></g><g
           transform="translate(15.4837,36.4516)"
           id="g96"><path
             id="path98"
             style="fill:#404490;fill-opacity:1;fill-rule:nonzero;stroke:none"
             d="m 0,0 v -0.526 h -3.842 c 0.015,-1.937 0.743,-3.021 1.983,-3.021 0.558,0 1.131,0.17 1.689,0.527 v -0.791 c -0.496,-0.325 -1.193,-0.542 -1.86,-0.542 -1.782,0 -2.789,1.472 -2.789,4.06 0,2.587 0.93,4.011 2.588,4.011 C -0.79,3.718 0,2.371 0,0 m -3.842,0.217 h 2.959 c 0,1.736 -0.48,2.712 -1.363,2.712 -0.977,0 -1.566,-0.991 -1.596,-2.712" /></g><g
           transform="translate(19.4505,32.9199)"
           id="g100"><path
             id="path102"
             style="fill:#404490;fill-opacity:1;fill-rule:nonzero;stroke:none"
             d="m 0,0 c 0.341,0 0.666,0.077 0.914,0.17 v -0.79 c -0.217,-0.093 -0.667,-0.201 -1.178,-0.201 -0.913,0 -1.611,0.48 -1.611,1.936 v 5.267 h -1.022 v 0.745 h 1.022 v 2.107 h 0.96 V 7.127 h 1.89 V 6.382 h -1.89 V 1.147 C -0.915,0.387 -0.543,0 0,0" /></g><g
           transform="translate(26.0042,37.5981)"
           id="g104"><path
             id="path106"
             style="fill:#404490;fill-opacity:1;fill-rule:nonzero;stroke:none"
             d="m 0,0 c 0,1.239 -0.543,1.751 -1.302,1.751 -0.635,0 -1.177,-0.325 -1.58,-0.791 V -5.298 H -3.859 V 5.965 h 0.977 V 1.534 c 0.543,0.667 1.208,1.039 1.922,1.039 1.207,0 1.92,-0.728 1.92,-2.526 V -5.298 H 0 Z" /></g><g
           transform="translate(28.075,29.0927)"
           id="g108"><path
             id="path110"
             style="fill:#404490;fill-opacity:1;fill-rule:nonzero;stroke:none"
             d="m 0,0 c -0.341,0 -0.604,0.047 -0.915,0.14 v 0.882 c 0.311,-0.139 0.574,-0.201 0.884,-0.201 0.774,0 1.053,0.605 1.425,2.263 l -2.169,7.87 H 0.17 L 1.905,4.245 h 0.032 l 1.719,6.709 H 4.555 L 2.339,2.789 C 1.767,0.743 1.177,0 0,0" /></g><g
           transform="translate(35.3953,43.563)"
           id="g112"><path
             id="path114"
             style="fill:#404490;fill-opacity:1;fill-rule:nonzero;stroke:none"
             d="m 0,0 v -9.869 c 0,-0.527 0.155,-0.729 0.543,-0.729 0.155,0 0.294,0.032 0.432,0.095 v -0.745 c -0.231,-0.093 -0.511,-0.154 -0.758,-0.154 -0.758,0 -1.192,0.448 -1.192,1.27 l 0,10.132 z" /></g><g
           transform="translate(39.2991,39.0244)"
           id="g116"><path
             id="path118"
             style="fill:#404490;fill-opacity:1;fill-rule:nonzero;stroke:none"
             d="m 0,0 h 0.016 c 0.527,0.758 1.162,1.146 1.874,1.146 1.503,0 2.356,-1.363 2.356,-3.781 0,-2.726 -0.883,-4.244 -2.464,-4.244 -0.635,0 -1.178,0.263 -1.674,0.836 H 0.078 V -9.9 H -0.898 V 1.022 l 0.898,0 z m 1.549,0.356 c -0.542,0 -1.038,-0.31 -1.471,-0.945 v -4.679 c 0.48,-0.558 0.991,-0.806 1.487,-0.806 1.07,0 1.673,1.24 1.673,3.409 0,1.921 -0.603,3.021 -1.689,3.021" /></g><g
           transform="translate(49.7723,37.5981)"
           id="g120"><path
             id="path122"
             style="fill:#404490;fill-opacity:1;fill-rule:nonzero;stroke:none"
             d="m 0,0 c 0,1.239 -0.543,1.751 -1.301,1.751 -0.636,0 -1.178,-0.325 -1.581,-0.791 V -5.298 H -3.859 V 5.965 h 0.977 V 1.534 c 0.543,0.667 1.209,1.039 1.922,1.039 1.207,0 1.92,-0.728 1.92,-2.526 V -5.298 H 0 Z" /></g><g
           transform="translate(57.4261,36.4516)"
           id="g124"><path
             id="path126"
             style="fill:#404490;fill-opacity:1;fill-rule:nonzero;stroke:none"
             d="m 0,0 v -0.526 h -3.842 c 0.015,-1.937 0.743,-3.021 1.982,-3.021 0.559,0 1.132,0.17 1.689,0.527 v -0.791 c -0.495,-0.325 -1.192,-0.542 -1.859,-0.542 -1.782,0 -2.789,1.472 -2.789,4.06 0,2.587 0.93,4.011 2.588,4.011 C -0.79,3.718 0,2.371 0,0 m -3.842,0.217 h 2.959 c 0,1.736 -0.48,2.712 -1.363,2.712 -0.977,0 -1.566,-0.991 -1.596,-2.712" /></g><g
           transform="translate(59.3167,40.0468)"
           id="g128"><path
             id="path130"
             style="fill:#404490;fill-opacity:1;fill-rule:nonzero;stroke:none"
             d="m 0,0 h 0.883 v -0.992 h 0.032 c 0.557,0.728 1.27,1.116 1.982,1.116 1.209,0 1.922,-0.728 1.922,-2.526 v -5.345 h -0.96 v 5.298 c 0,1.24 -0.543,1.751 -1.303,1.751 -0.634,0 -1.177,-0.324 -1.579,-0.79 V -7.747 H 0 Z" /></g><path
           id="path132"
           style="fill:#404490;fill-opacity:1;fill-rule:nonzero;stroke:none"
           d="m 66.49,41.58 h 0.977 v 1.472 H 66.49 Z m 0,-9.281 h 0.977 v 7.747 H 66.49 Z" /><g
           transform="translate(71.867,40.1704)"
           id="g134"><path
             id="path136"
             style="fill:#404490;fill-opacity:1;fill-rule:nonzero;stroke:none"
             d="M 0,0 C 0.635,0 1.162,-0.279 1.657,-0.945 H 1.674 V 3.393 H 2.65 V -7.871 h -0.9 v 0.977 H 1.735 c -0.573,-0.76 -1.208,-1.131 -1.89,-1.131 -1.503,0 -2.34,1.394 -2.34,3.857 C -2.495,-1.503 -1.596,0 0,0 m 0.17,-7.22 c 0.543,0 1.084,0.341 1.504,0.945 v 4.587 c -0.482,0.619 -0.945,0.898 -1.473,0.898 -1.084,0 -1.689,-1.224 -1.689,-3.378 0,-1.935 0.605,-3.052 1.658,-3.052" /></g><g
           transform="translate(81.6131,32.873)"
           id="g138"><path
             id="path140"
             style="fill:#404490;fill-opacity:1;fill-rule:nonzero;stroke:none"
             d="m 0,0 v -0.635 c -0.264,-0.077 -0.45,-0.123 -0.636,-0.123 -0.527,0 -0.806,0.309 -0.898,0.975 -0.465,-0.651 -1.101,-0.975 -1.86,-0.975 -1.177,0 -1.827,0.805 -1.827,2.214 0,1.611 0.773,2.433 2.292,2.433 h 1.286 v 0.728 c 0,1.317 -0.388,1.875 -1.332,1.875 -0.466,0 -1.007,-0.109 -1.642,-0.341 l 0.015,0.775 c 0.573,0.247 1.208,0.371 1.812,0.371 1.473,0 2.123,-0.79 2.123,-2.665 V 0.574 c 0,-0.387 0.123,-0.589 0.387,-0.604 z m -1.643,3.208 h -1.085 c -1.037,0 -1.533,-0.528 -1.533,-1.659 0,-1.006 0.387,-1.502 1.177,-1.502 0.573,0 1.037,0.247 1.441,0.774 z" /></g><g
           transform="translate(85.4856,32.9199)"
           id="g142"><path
             id="path144"
             style="fill:#404490;fill-opacity:1;fill-rule:nonzero;stroke:none"
             d="m 0,0 c 0.341,0 0.666,0.077 0.915,0.17 v -0.79 c -0.217,-0.093 -0.666,-0.201 -1.179,-0.201 -0.913,0 -1.61,0.48 -1.61,1.936 v 5.267 h -1.023 v 0.745 h 1.023 v 2.107 h 0.96 V 7.127 H 0.977 V 6.382 H -0.914 V 1.147 C -0.914,0.387 -0.543,0 0,0" /></g><g
           transform="translate(92.4578,36.4516)"
           id="g146"><path
             id="path148"
             style="fill:#404490;fill-opacity:1;fill-rule:nonzero;stroke:none"
             d="m 0,0 v -0.526 h -3.842 c 0.016,-1.937 0.744,-3.021 1.983,-3.021 0.558,0 1.131,0.17 1.689,0.527 v -0.791 c -0.495,-0.325 -1.193,-0.542 -1.859,-0.542 -1.782,0 -2.789,1.472 -2.789,4.06 0,2.587 0.929,4.011 2.587,4.011 C -0.789,3.718 0,2.371 0,0 m -3.842,0.217 h 2.96 c 0,1.736 -0.481,2.712 -1.364,2.712 -0.977,0 -1.565,-0.991 -1.596,-2.712" /></g><g
           transform="translate(128.2029,30.0044)"
           id="g150"><path
             id="path152"
             style="fill:#404490;fill-opacity:1;fill-rule:nonzero;stroke:none"
             d="m 0,0 c -4.443,0 -8.058,3.615 -8.058,8.058 0,4.444 3.615,8.059 8.058,8.059 2.1,0 4.089,-0.803 5.6,-2.263 C 5.871,13.592 5.879,13.159 5.616,12.887 5.353,12.615 4.92,12.609 4.649,12.871 3.395,14.081 1.744,14.749 0,14.749 c -3.689,0 -6.69,-3.001 -6.69,-6.691 0,-3.688 3.001,-6.689 6.69,-6.689 1.943,0 3.788,0.842 5.06,2.313 0.248,0.286 0.68,0.316 0.965,0.07 C 6.311,3.505 6.342,3.073 6.096,2.787 4.562,1.016 2.342,0 0,0" /></g><g
           transform="translate(126.5477,34.3852)"
           id="g154"><path
             id="path156"
             style="fill:#404490;fill-opacity:1;fill-rule:nonzero;stroke:none"
             d="M 0,0 H -0.158 C -0.45,0 -0.689,0.238 -0.689,0.531 V 6.66 c 0,0.292 0.239,0.53 0.531,0.53 L 0,7.19 c 0.292,0 0.53,-0.238 0.53,-0.53 V 0.531 C 0.53,0.238 0.292,0 0,0" /></g><g
           transform="translate(129.7112,34.3852)"
           id="g158"><path
             id="path160"
             style="fill:#404490;fill-opacity:1;fill-rule:nonzero;stroke:none"
             d="M 0,0 H -0.158 C -0.45,0 -0.689,0.238 -0.689,0.531 V 6.66 c 0,0.292 0.239,0.53 0.531,0.53 L 0,7.19 c 0.292,0 0.531,-0.238 0.531,-0.53 V 0.531 C 0.531,0.238 0.292,0 0,0" /></g><g
           transform="translate(127.5686)"
           id="g162"><path
             id="path164"
             style="fill:#404490;fill-opacity:1;fill-rule:nonzero;stroke:none"
             d="m 0,0 h -121.321 c -3.358,0 -6.091,2.731 -6.091,6.089 v 1.25 c 0,3.358 2.733,6.091 6.091,6.091 H 0 c 3.359,0 6.091,-2.733 6.091,-6.091 V 6.089 C 6.091,2.731 3.359,0 0,0 m -121.321,13.214 c -3.239,0 -5.875,-2.635 -5.875,-5.875 v -1.25 c 0,-3.239 2.636,-5.874 5.875,-5.874 L 0,0.215 c 3.239,0 5.876,2.635 5.876,5.874 v 1.25 c 0,3.24 -2.637,5.875 -5.876,5.875 z" /></g><g
           transform="translate(7.5169,9.8662)"
           id="g166"><path
             id="path168"
             style="fill:#404490;fill-opacity:1;fill-rule:nonzero;stroke:none"
             d="m 0,0 c 0.76,0 1.119,-0.429 1.119,-1.352 0,-0.682 -0.266,-1.231 -0.851,-2.021 l -0.789,-1.054 1.76,-0.008 v -0.409 h -2.28 v 0.381 l 0.907,1.217 c 0.536,0.691 0.789,1.289 0.789,1.866 0,0.676 -0.232,0.994 -0.718,0.994 -0.304,0 -0.613,-0.093 -0.944,-0.303 v 0.4 C -0.669,-0.091 -0.352,0 0,0" /></g><g
           transform="translate(10.7288,4.9321)"
           id="g170"><path
             id="path172"
             style="fill:#404490;fill-opacity:1;fill-rule:nonzero;stroke:none"
             d="m 0,0 c -0.881,0 -1.296,0.794 -1.296,2.477 0,1.669 0.415,2.457 1.296,2.457 0.887,0 1.302,-0.788 1.302,-2.457 C 1.302,0.794 0.887,0 0,0 m 0,4.533 c -0.57,0 -0.831,-0.655 -0.831,-2.056 0,-1.408 0.261,-2.07 0.831,-2.07 0.57,0 0.837,0.655 0.837,2.042 C 0.837,3.865 0.57,4.533 0,4.533" /></g><g
           transform="translate(16.7347,7.4516)"
           id="g174"><path
             id="path176"
             style="fill:#404490;fill-opacity:1;fill-rule:nonzero;stroke:none"
             d="m 0,0 v -2.429 h -0.443 v 2.407 c 0,0.564 -0.246,0.797 -0.556,0.797 -0.225,0 -0.514,-0.134 -0.704,-0.395 C -1.682,0.268 -1.675,0.14 -1.675,0 v -2.429 h -0.443 v 2.407 c 0,0.564 -0.24,0.797 -0.549,0.797 -0.24,0 -0.501,-0.148 -0.684,-0.36 v -2.844 h -0.443 v 3.52 h 0.401 v -0.45 h 0.014 c 0.254,0.33 0.591,0.506 0.866,0.506 0.366,0 0.634,-0.169 0.76,-0.57 0.282,0.401 0.634,0.57 0.916,0.57 C -0.33,1.147 0,0.816 0,0" /></g><g
           transform="translate(19.4129,5.5229)"
           id="g178"><path
             id="path180"
             style="fill:#404490;fill-opacity:1;fill-rule:nonzero;stroke:none"
             d="m 0,0 c -0.233,-0.331 -0.507,-0.501 -0.803,-0.501 -0.683,0 -1.063,0.626 -1.063,1.747 0,1.168 0.395,1.831 1.105,1.831 0.296,0 0.592,-0.17 0.796,-0.472 V 3.021 H 0.436 V -0.67 c 0,-0.887 -0.365,-1.309 -1.14,-1.309 -0.331,0 -0.626,0.085 -0.907,0.26 v 0.38 c 0.315,-0.197 0.568,-0.281 0.836,-0.281 0.529,0 0.782,0.289 0.782,0.901 l 0,0.719 z m -0.669,-0.134 c 0.226,0 0.451,0.155 0.669,0.451 v 1.985 c -0.205,0.289 -0.415,0.415 -0.669,0.415 -0.471,0 -0.739,-0.527 -0.739,-1.464 0,-0.886 0.268,-1.387 0.739,-1.387" /></g><g
           transform="translate(33.9187,6.6279)"
           id="g182"><path
             id="path184"
             style="fill:#404490;fill-opacity:1;fill-rule:nonzero;stroke:none"
             d="M 0,0 0.078,1.19 H 0.436 V 0 H 1.007 V -0.402 H 0.436 V -1.605 H 0 v 1.203 h -1.548 v 0.43 l 1.097,3.133 h 0.43 L -1.119,0 Z" /></g><g
           transform="translate(36.8133,4.9321)"
           id="g186"><path
             id="path188"
             style="fill:#404490;fill-opacity:1;fill-rule:nonzero;stroke:none"
             d="m 0,0 c -0.879,0 -1.295,0.794 -1.295,2.477 0,1.669 0.416,2.457 1.295,2.457 0.888,0 1.302,-0.788 1.302,-2.457 C 1.302,0.794 0.888,0 0,0 m 0,4.533 c -0.57,0 -0.831,-0.655 -0.831,-2.056 0,-1.408 0.261,-2.07 0.831,-2.07 0.57,0 0.838,0.655 0.838,2.042 C 0.838,3.865 0.57,4.533 0,4.533" /></g><g
           transform="translate(42.8201,7.4516)"
           id="g190"><path
             id="path192"
             style="fill:#404490;fill-opacity:1;fill-rule:nonzero;stroke:none"
             d="m 0,0 v -2.429 h -0.443 v 2.407 c 0,0.564 -0.246,0.797 -0.556,0.797 -0.225,0 -0.514,-0.134 -0.704,-0.395 C -1.682,0.268 -1.675,0.14 -1.675,0 v -2.429 h -0.444 v 2.407 c 0,0.564 -0.239,0.797 -0.548,0.797 -0.24,0 -0.501,-0.148 -0.684,-0.36 v -2.844 h -0.444 v 3.52 h 0.402 v -0.45 h 0.014 c 0.254,0.33 0.591,0.506 0.866,0.506 0.366,0 0.634,-0.169 0.76,-0.57 0.282,0.401 0.634,0.57 0.916,0.57 C -0.33,1.147 0,0.816 0,0" /></g><g
           transform="translate(45.4983,5.5229)"
           id="g194"><path
             id="path196"
             style="fill:#404490;fill-opacity:1;fill-rule:nonzero;stroke:none"
             d="m 0,0 c -0.233,-0.331 -0.508,-0.501 -0.803,-0.501 -0.683,0 -1.063,0.626 -1.063,1.747 0,1.168 0.395,1.831 1.105,1.831 0.296,0 0.592,-0.17 0.796,-0.472 V 3.021 H 0.436 V -0.67 c 0,-0.887 -0.367,-1.309 -1.14,-1.309 -0.331,0 -0.626,0.085 -0.909,0.26 v 0.38 c 0.317,-0.197 0.57,-0.281 0.838,-0.281 0.529,0 0.782,0.289 0.782,0.901 l 0,0.719 z m -0.669,-0.134 c 0.226,0 0.451,0.155 0.669,0.451 v 1.985 c -0.205,0.289 -0.415,0.415 -0.669,0.415 -0.471,0 -0.739,-0.527 -0.739,-1.464 0,-0.886 0.268,-1.387 0.739,-1.387" /></g><g
           transform="translate(60.7713,6.4663)"
           id="g198"><path
             id="path200"
             style="fill:#404490;fill-opacity:1;fill-rule:nonzero;stroke:none"
             d="m 0,0 c 0,-0.985 -0.393,-1.521 -1.125,-1.521 -0.775,0 -1.19,0.788 -1.19,2.268 0,1.723 0.471,2.652 1.449,2.652 0.219,0 0.445,-0.048 0.585,-0.104 V 2.913 c -0.19,0.072 -0.408,0.121 -0.585,0.121 -0.619,0 -0.971,-0.633 -1.006,-1.809 0.24,0.217 0.514,0.344 0.797,0.344 C -0.379,1.569 0,1.013 0,0 m -0.436,-0.035 c 0,0.802 -0.253,1.24 -0.717,1.24 -0.254,0 -0.501,-0.128 -0.719,-0.367 V 0.619 c 0.007,-1.148 0.274,-1.767 0.767,-1.767 0.438,0 0.669,0.387 0.669,1.113" /></g><g
           transform="translate(62.7659,4.9321)"
           id="g202"><path
             id="path204"
             style="fill:#404490;fill-opacity:1;fill-rule:nonzero;stroke:none"
             d="m 0,0 c -0.879,0 -1.295,0.794 -1.295,2.477 0,1.669 0.416,2.457 1.295,2.457 0.888,0 1.302,-0.788 1.302,-2.457 C 1.302,0.794 0.888,0 0,0 m 0,4.533 c -0.57,0 -0.831,-0.655 -0.831,-2.056 0,-1.408 0.261,-2.07 0.831,-2.07 0.57,0 0.838,0.655 0.838,2.042 C 0.838,3.865 0.57,4.533 0,4.533" /></g><g
           transform="translate(68.7728,7.4516)"
           id="g206"><path
             id="path208"
             style="fill:#404490;fill-opacity:1;fill-rule:nonzero;stroke:none"
             d="m 0,0 v -2.429 h -0.443 v 2.407 C -0.443,0.542 -0.689,0.775 -1,0.775 -1.225,0.775 -1.514,0.641 -1.703,0.38 -1.682,0.268 -1.675,0.14 -1.675,0 v -2.429 h -0.444 v 2.407 c 0,0.564 -0.239,0.797 -0.55,0.797 -0.238,0 -0.499,-0.148 -0.682,-0.36 v -2.844 h -0.444 v 3.52 h 0.402 v -0.45 h 0.014 c 0.254,0.33 0.591,0.506 0.866,0.506 0.366,0 0.634,-0.169 0.76,-0.57 0.282,0.401 0.634,0.57 0.916,0.57 C -0.33,1.147 0,0.816 0,0" /></g><g
           transform="translate(71.4505,5.5229)"
           id="g210"><path
             id="path212"
             style="fill:#404490;fill-opacity:1;fill-rule:nonzero;stroke:none"
             d="m 0,0 c -0.233,-0.331 -0.508,-0.501 -0.803,-0.501 -0.683,0 -1.063,0.626 -1.063,1.747 0,1.168 0.395,1.831 1.105,1.831 0.296,0 0.592,-0.17 0.796,-0.472 V 3.021 H 0.436 V -0.67 c 0,-0.887 -0.367,-1.309 -1.14,-1.309 -0.331,0 -0.626,0.085 -0.909,0.26 v 0.38 c 0.317,-0.197 0.57,-0.281 0.838,-0.281 0.529,0 0.782,0.289 0.782,0.901 l 0,0.719 z m -0.669,-0.134 c 0.226,0 0.451,0.155 0.669,0.451 v 1.985 c -0.205,0.289 -0.415,0.415 -0.669,0.415 -0.472,0 -0.739,-0.527 -0.739,-1.464 0,-0.886 0.267,-1.387 0.739,-1.387" /></g><g
           transform="translate(86.6893,6.2197)"
           id="g214"><path
             id="path216"
             style="fill:#404490;fill-opacity:1;fill-rule:nonzero;stroke:none"
             d="m 0,0 c 0,-0.803 -0.471,-1.289 -1.175,-1.289 -0.648,0 -1.106,0.445 -1.106,1.211 0,0.711 0.302,1.113 0.704,1.365 -0.324,0.24 -0.591,0.55 -0.591,1.149 0,0.838 0.513,1.211 1.056,1.211 0.513,0 1.013,-0.36 1.013,-1.105 0,-0.641 -0.268,-1.021 -0.655,-1.296 C -0.359,0.993 0,0.691 0,0 m -0.443,-0.05 c 0,0.655 -0.438,0.894 -0.874,1.169 -0.338,-0.232 -0.542,-0.577 -0.542,-1.134 0,-0.605 0.31,-0.901 0.71,-0.901 0.402,0 0.706,0.289 0.706,0.866 m -1.289,2.542 c 0,-0.591 0.345,-0.851 0.732,-1.091 0.324,0.275 0.493,0.634 0.493,1.106 0,0.52 -0.288,0.795 -0.62,0.795 -0.338,0 -0.605,-0.268 -0.605,-0.81" /></g><g
           transform="translate(88.7112,4.9321)"
           id="g218"><path
             id="path220"
             style="fill:#404490;fill-opacity:1;fill-rule:nonzero;stroke:none"
             d="m 0,0 c -0.879,0 -1.295,0.794 -1.295,2.477 0,1.669 0.416,2.457 1.295,2.457 0.887,0 1.302,-0.788 1.302,-2.457 C 1.302,0.794 0.887,0 0,0 m 0,4.533 c -0.57,0 -0.831,-0.655 -0.831,-2.056 0,-1.408 0.261,-2.07 0.831,-2.07 0.57,0 0.838,0.655 0.838,2.042 C 0.838,3.865 0.57,4.533 0,4.533" /></g><g
           transform="translate(94.7176,7.4516)"
           id="g222"><path
             id="path224"
             style="fill:#404490;fill-opacity:1;fill-rule:nonzero;stroke:none"
             d="m 0,0 v -2.429 h -0.443 v 2.407 C -0.443,0.542 -0.689,0.775 -1,0.775 -1.224,0.775 -1.514,0.641 -1.703,0.38 -1.682,0.268 -1.675,0.14 -1.675,0 v -2.429 h -0.444 v 2.407 c 0,0.564 -0.239,0.797 -0.55,0.797 -0.238,0 -0.499,-0.148 -0.682,-0.36 v -2.844 h -0.444 v 3.52 h 0.402 v -0.45 h 0.014 c 0.254,0.33 0.591,0.506 0.866,0.506 0.366,0 0.634,-0.169 0.76,-0.57 0.282,0.401 0.634,0.57 0.916,0.57 C -0.33,1.147 0,0.816 0,0" /></g><g
           transform="translate(97.3953,5.5229)"
           id="g226"><path
             id="path228"
             style="fill:#404490;fill-opacity:1;fill-rule:nonzero;stroke:none"
             d="m 0,0 c -0.233,-0.331 -0.507,-0.501 -0.803,-0.501 -0.682,0 -1.063,0.626 -1.063,1.747 0,1.168 0.395,1.831 1.106,1.831 0.296,0 0.592,-0.17 0.795,-0.472 V 3.021 H 0.437 V -0.67 c 0,-0.887 -0.366,-1.309 -1.141,-1.309 -0.33,0 -0.626,0.085 -0.907,0.26 v 0.38 c 0.316,-0.197 0.57,-0.281 0.836,-0.281 0.529,0 0.782,0.289 0.782,0.901 l 0,0.719 z m -0.669,-0.134 c 0.226,0 0.451,0.155 0.669,0.451 v 1.985 c -0.203,0.289 -0.415,0.415 -0.669,0.415 -0.471,0 -0.739,-0.527 -0.739,-1.464 0,-0.886 0.268,-1.387 0.739,-1.387" /></g><g
           transform="translate(111.1292,5.0229)"
           id="g230"><path
             id="path232"
             style="fill:#404490;fill-opacity:1;fill-rule:nonzero;stroke:none"
             d="M 0,0 V 4.302 L -0.775,3.97 V 4.308 L 0.05,4.766 H 0.464 L 0.464,0 Z" /></g><g
           transform="translate(113.9808,4.9321)"
           id="g234"><path
             id="path236"
             style="fill:#404490;fill-opacity:1;fill-rule:nonzero;stroke:none"
             d="m 0,0 c -0.879,0 -1.295,0.794 -1.295,2.477 0,1.669 0.416,2.457 1.295,2.457 0.888,0 1.302,-0.788 1.302,-2.457 C 1.302,0.794 0.888,0 0,0 m 0,4.533 c -0.57,0 -0.829,-0.655 -0.829,-2.056 0,-1.408 0.259,-2.07 0.829,-2.07 0.571,0 0.838,0.655 0.838,2.042 0,1.416 -0.267,2.084 -0.838,2.084" /></g><g
           transform="translate(117.3416,4.9321)"
           id="g238"><path
             id="path240"
             style="fill:#404490;fill-opacity:1;fill-rule:nonzero;stroke:none"
             d="m 0,0 c -0.881,0 -1.296,0.794 -1.296,2.477 0,1.669 0.415,2.457 1.296,2.457 0.887,0 1.302,-0.788 1.302,-2.457 C 1.302,0.794 0.887,0 0,0 m 0,4.533 c -0.57,0 -0.831,-0.655 -0.831,-2.056 0,-1.408 0.261,-2.07 0.831,-2.07 0.57,0 0.838,0.655 0.838,2.042 C 0.838,3.865 0.57,4.533 0,4.533" /></g><g
           transform="translate(123.3479,7.4516)"
           id="g242"><path
             id="path244"
             style="fill:#404490;fill-opacity:1;fill-rule:nonzero;stroke:none"
             d="m 0,0 v -2.429 h -0.443 v 2.407 C -0.443,0.542 -0.691,0.775 -1,0.775 -1.225,0.775 -1.514,0.641 -1.704,0.38 -1.683,0.268 -1.676,0.14 -1.676,0 v -2.429 h -0.443 v 2.407 c 0,0.564 -0.239,0.797 -0.549,0.797 -0.24,0 -0.5,-0.148 -0.684,-0.36 v -2.844 h -0.443 v 3.52 h 0.401 v -0.45 h 0.014 c 0.255,0.33 0.592,0.506 0.866,0.506 0.367,0 0.635,-0.169 0.761,-0.57 0.282,0.401 0.634,0.57 0.915,0.57 C -0.331,1.147 0,0.816 0,0" /></g><g
           transform="translate(126.0257,5.5229)"
           id="g246"><path
             id="path248"
             style="fill:#404490;fill-opacity:1;fill-rule:nonzero;stroke:none"
             d="m 0,0 c -0.233,-0.331 -0.508,-0.501 -0.803,-0.501 -0.683,0 -1.063,0.626 -1.063,1.747 0,1.168 0.395,1.831 1.106,1.831 0.296,0 0.591,-0.17 0.795,-0.472 V 3.021 H 0.437 V -0.67 c 0,-0.887 -0.366,-1.309 -1.141,-1.309 -0.331,0 -0.626,0.085 -0.909,0.26 v 0.38 c 0.318,-0.197 0.57,-0.281 0.838,-0.281 0.529,0 0.782,0.289 0.782,0.901 l 0,0.719 z m -0.669,-0.134 c 0.226,0 0.451,0.155 0.669,0.451 v 1.985 c -0.205,0.289 -0.415,0.415 -0.669,0.415 -0.471,0 -0.739,-0.527 -0.739,-1.464 0,-0.886 0.268,-1.387 0.739,-1.387" /></g><g
           transform="translate(9.8572,73.4184)"
           id="g250"><path
             id="path252"
             style="fill:#404490;fill-opacity:1;fill-rule:nonzero;stroke:none"
             d="m 0,0 h -1.159 c -0.822,0 -1.233,-0.411 -1.233,-1.233 v -17.398 c 0,-0.533 -0.051,-0.994 -0.141,-1.398 0,0 -0.448,-3.552 -3.726,-3.552 -0.688,0 -1.214,0.284 -1.619,0.446 -0.567,0.161 -1.174,0.04 -1.497,-0.689 L -9.7,-24.513 c -0.323,-0.687 -0.161,-1.416 0.608,-1.739 0.688,-0.284 1.659,-0.648 2.833,-0.648 6.045,0 7.455,5.663 7.455,8.12 V -1.233 C 1.196,-0.411 0.784,0 0,0" /></g><g
           transform="translate(121.6487,72.2846)"
           id="g254"><path
             id="path256"
             style="fill:#404490;fill-opacity:1;fill-rule:nonzero;stroke:none"
             d="m 0,0 c 0,0.217 0.108,0.325 0.325,0.325 h 2.216 c 1.271,0 2.176,-0.857 2.176,-2.176 0,-1.32 -0.905,-2.207 -2.176,-2.207 H 0.965 v -2.245 c 0,-0.217 -0.109,-0.324 -0.324,-0.324 H 0.325 C 0.108,-6.627 0,-6.52 0,-6.303 Z m 2.383,-3.21 c 0.837,0 1.349,0.522 1.349,1.359 0,0.837 -0.512,1.329 -1.338,1.329 H 0.965 V -3.21 Z" /></g><g
           transform="translate(127.7923,72.3047)"
           id="g258"><path
             id="path260"
             style="fill:#404490;fill-opacity:1;fill-rule:nonzero;stroke:none"
             d="m 0,0 c 0.02,0.196 0.138,0.305 0.334,0.305 h 0.444 c 0.187,0 0.305,-0.078 0.364,-0.256 l 1.507,-3.506 c 0.157,-0.384 0.345,-0.935 0.345,-0.935 h 0.019 c 0,0 0.177,0.551 0.335,0.935 L 4.855,0.049 C 4.914,0.227 5.032,0.305 5.219,0.305 H 5.662 C 5.859,0.305 5.977,0.196 5.998,0 L 6.509,-6.312 C 6.519,-6.529 6.411,-6.648 6.194,-6.648 H 5.879 c -0.207,0 -0.315,0.109 -0.335,0.315 l -0.315,4.067 c -0.04,0.424 -0.02,1.025 -0.02,1.025 h -0.02 c 0,0 -0.216,-0.64 -0.373,-1.025 L 3.535,-5.141 C 3.466,-5.318 3.348,-5.396 3.161,-5.396 H 2.836 c -0.187,0 -0.305,0.078 -0.374,0.255 l -1.28,2.875 c -0.148,0.375 -0.374,1.045 -0.374,1.045 h -0.02 c 0,0 0.02,-0.621 -0.02,-1.045 L 0.453,-6.333 C 0.433,-6.539 0.325,-6.648 0.127,-6.648 h -0.324 c -0.217,0 -0.326,0.119 -0.315,0.336 z" /></g><g
           transform="translate(130.074,60.8559)"
           id="g262"><path
             id="path264"
             style="fill:#3eaae0;fill-opacity:1;fill-rule:nonzero;stroke:none"
             d="m 0,0 c -0.088,0.064 -0.207,0.065 -0.295,0 -3.316,-2.435 -7.833,-2.09 -10.74,0.817 -3.024,3.023 -3.261,7.793 -0.553,11.095 0.068,0.084 0.074,0.203 0.015,0.295 -0.06,0.09 -0.173,0.132 -0.277,0.102 -1.587,-0.455 -3.042,-1.313 -4.21,-2.481 -1.848,-1.847 -2.865,-4.303 -2.865,-6.915 0,-2.612 1.017,-5.068 2.865,-6.915 1.906,-1.906 4.41,-2.859 6.914,-2.859 2.505,0 5.009,0.953 6.915,2.86 1.047,1.046 1.828,2.298 2.318,3.72 C 0.123,-0.179 0.087,-0.064 0,0" /></g><g
           transform="translate(136.2352,75.7719)"
           id="g266"><path
             id="path268"
             style="fill:#404490;fill-opacity:1;fill-rule:nonzero;stroke:none"
             d="m 0,0 v -0.055 c 0,-0.084 -0.048,-0.131 -0.132,-0.131 h -0.714 v -2.112 c 0,-0.085 -0.048,-0.132 -0.132,-0.132 h -0.121 c -0.084,0 -0.131,0.047 -0.131,0.132 v 2.112 h -0.714 c -0.08,0 -0.132,0.047 -0.132,0.131 V 0 c 0,0.084 0.052,0.132 0.132,0.132 h 1.812 C -0.048,0.132 0,0.084 0,0" /></g><g
           transform="translate(136.4935,73.4804)"
           id="g270"><path
             id="path272"
             style="fill:#404490;fill-opacity:1;fill-rule:nonzero;stroke:none"
             d="m 0,0 0.219,2.299 c 0.008,0.084 0.055,0.124 0.136,0.124 h 0.194 c 0.073,0 0.12,-0.029 0.15,-0.103 L 1.497,0.414 2.291,2.32 c 0.034,0.074 0.077,0.103 0.154,0.103 h 0.19 c 0.085,0 0.133,-0.04 0.14,-0.124 L 2.991,0 C 2.999,-0.092 2.951,-0.139 2.862,-0.139 H 2.741 c -0.083,0 -0.135,0.041 -0.142,0.125 L 2.442,1.834 1.68,-0.003 C 1.65,-0.073 1.604,-0.106 1.527,-0.106 H 1.464 c -0.076,0 -0.12,0.033 -0.15,0.103 L 0.553,1.834 0.392,-0.014 C 0.384,-0.098 0.337,-0.139 0.253,-0.139 H 0.133 C 0.043,-0.139 -0.007,-0.092 0,0" /></g><g
           transform="translate(114.5516,43.563)"
           id="g274"><path
             id="path276"
             style="fill:#404490;fill-opacity:1;fill-rule:nonzero;stroke:none"
             d="m 0,0 v -9.869 c 0,-0.527 0.155,-0.729 0.543,-0.729 0.155,0 0.294,0.032 0.432,0.095 v -0.745 c -0.231,-0.093 -0.511,-0.154 -0.758,-0.154 -0.758,0 -1.192,0.448 -1.192,1.27 l 0,10.132 z" /></g><g
           transform="translate(102.5584,37.5449)"
           id="g278"><path
             id="path280"
             style="fill:#404490;fill-opacity:1;fill-rule:nonzero;stroke:none"
             d="M 0,0 H -4.137 V -5.234 H -5.201 V 5.84 h 1.064 V 0.966 H 0 V 5.84 H 1.063 V -5.234 H 0 Z" /></g><g
           transform="translate(109.8279,42.6479)"
           id="g282"><path
             id="path284"
             style="fill:#404490;fill-opacity:1;fill-rule:nonzero;stroke:none"
             d="m 0,0 c -1.979,0 -3.074,-1.735 -3.074,-4.793 0,-3.09 1.129,-4.809 3.139,-4.809 0.688,0 1.44,0.181 2.062,0.508 v -0.949 c -0.64,-0.327 -1.44,-0.505 -2.209,-0.505 -2.616,0 -4.105,2.042 -4.105,5.674 0,3.714 1.423,5.789 3.974,5.789 0.802,0 1.588,-0.163 2.143,-0.491 V -0.557 C 1.359,-0.198 0.67,0 0,0" /></g></g></g><g
       id="g286"><g
         id="g288"><g
           id="g294"><g
             id="g296"><path
               id="path304"
               style="fill:url(#linearGradient302);stroke:none"
               d="M 13.044,78.737 12.766,78.459 C 12.538,78.232 12.537,77.86 12.762,77.632 v 0 l 3.851,-3.851 c 0.23,-0.211 0.589,-0.204 0.812,0.019 v 0 l 0.278,0.277 c 0.229,0.23 0.229,0.602 0.001,0.831 v 0 l -3.829,3.828 c -0.114,0.115 -0.265,0.172 -0.416,0.172 v 0 c -0.151,0 -0.301,-0.056 -0.415,-0.171" /></g></g></g></g><g
       id="g306"><g
         clip-path="url(#clipPath312)"
         id="g308"><g
           transform="translate(4.448,21.8423)"
           id="g314"><path
             id="path316"
             style="fill:#404490;fill-opacity:1;fill-rule:nonzero;stroke:none"
             d="M 0,0 C -0.044,1.2 -0.753,1.76 -1.584,1.76 -2.515,1.76 -3.324,1.154 -3.5,0 Z m -1.562,2.411 c 1.54,0 2.326,-1.223 2.326,-2.651 0,-0.137 -0.022,-0.4 -0.022,-0.4 h -4.276 c 0.034,-1.475 1.008,-2.275 2.16,-2.275 1.02,0 1.695,0.698 1.695,0.698 l 0.344,-0.595 c 0,0 -0.809,-0.8 -2.061,-0.8 -1.662,0 -2.914,1.235 -2.914,3.006 0,1.886 1.241,3.017 2.748,3.017" /></g><g
           transform="translate(8.4471,20.8476)"
           id="g318"><path
             id="path320"
             style="fill:#404490;fill-opacity:1;fill-rule:nonzero;stroke:none"
             d="M 0,0 C 0,0 -0.089,-0.171 -0.188,-0.32 L -1.54,-2.48 h -0.886 l 1.961,2.994 -1.795,2.755 h 0.886 L -0.177,1.337 C -0.089,1.188 0.011,1.006 0.011,1.006 h 0.011 c 0,0 0.1,0.182 0.188,0.331 L 1.407,3.269 H 2.293 L 0.499,0.514 2.459,-2.48 H 1.573 L 0.221,-0.32 C 0.122,-0.171 0.033,0 0.033,0 H 0.011 Z" /></g><g
           transform="translate(12.3016,23.3965)"
           id="g322"><path
             id="path324"
             style="fill:#404490;fill-opacity:1;fill-rule:nonzero;stroke:none"
             d="M 0,0 H -0.731 V 0.651 H 0.011 V 2.309 H 0.753 V 0.651 H 2.149 V 0 H 0.753 v -2.857 c 0,-1.349 0.831,-1.52 1.252,-1.52 0.156,0 0.255,0.023 0.255,0.023 v -0.698 c 0,0 -0.122,-0.023 -0.321,-0.023 C 1.296,-5.075 0,-4.857 0,-2.938 Z" /></g><g
           transform="translate(19.7239,21.8423)"
           id="g326"><path
             id="path328"
             style="fill:#404490;fill-opacity:1;fill-rule:nonzero;stroke:none"
             d="M 0,0 C -0.044,1.2 -0.753,1.76 -1.584,1.76 -2.515,1.76 -3.323,1.154 -3.501,0 Z m -1.562,2.411 c 1.54,0 2.326,-1.223 2.326,-2.651 0,-0.137 -0.022,-0.4 -0.022,-0.4 h -4.276 c 0.033,-1.475 1.008,-2.275 2.16,-2.275 1.02,0 1.695,0.698 1.695,0.698 l 0.344,-0.595 c 0,0 -0.809,-0.8 -2.061,-0.8 -1.662,0 -2.914,1.235 -2.914,3.006 0,1.886 1.241,3.017 2.748,3.017" /></g><g
           transform="translate(21.928,24.1162)"
           id="g330"><path
             id="path332"
             style="fill:#404490;fill-opacity:1;fill-rule:nonzero;stroke:none"
             d="m 0,0 h 0.742 v -0.857 c 0,-0.251 -0.022,-0.457 -0.022,-0.457 h 0.022 c 0.2,0.525 0.909,1.451 2.227,1.451 1.374,0 1.861,-0.811 1.861,-2.228 V -5.749 H 4.077 v 3.452 c 0,0.903 -0.133,1.703 -1.208,1.703 -0.952,0 -1.772,-0.675 -2.027,-1.623 C 0.775,-2.457 0.753,-2.72 0.753,-2.994 v -2.755 l -0.753,0 z" /></g><g
           transform="translate(30.6683,18.9277)"
           id="g334"><path
             id="path336"
             style="fill:#404490;fill-opacity:1;fill-rule:nonzero;stroke:none"
             d="m 0,0 c 0.931,0 1.806,0.686 1.806,2.32 0,1.166 -0.577,2.308 -1.773,2.308 -0.986,0 -1.794,-0.857 -1.794,-2.308 C -1.761,0.903 -1.041,0 0,0 m -0.033,5.326 c 1.351,0 1.817,-1.086 1.817,-1.086 h 0.022 c 0,0 -0.022,0.195 -0.022,0.434 V 7.475 H 2.537 V -0.56 H 1.806 v 0.606 c 0,0.251 0.022,0.411 0.022,0.411 H 1.806 c 0,0 -0.454,-1.154 -1.917,-1.154 -1.495,0 -2.426,1.234 -2.426,3.017 0,1.817 1.041,3.006 2.504,3.006" /></g><g
           transform="translate(38.9436,21.8423)"
           id="g338"><path
             id="path340"
             style="fill:#404490;fill-opacity:1;fill-rule:nonzero;stroke:none"
             d="M 0,0 C -0.044,1.2 -0.753,1.76 -1.584,1.76 -2.515,1.76 -3.323,1.154 -3.501,0 Z m -1.562,2.411 c 1.54,0 2.326,-1.223 2.326,-2.651 0,-0.137 -0.022,-0.4 -0.022,-0.4 h -4.276 c 0.033,-1.475 1.008,-2.275 2.16,-2.275 1.02,0 1.695,0.698 1.695,0.698 l 0.344,-0.595 c 0,0 -0.809,-0.8 -2.061,-0.8 -1.662,0 -2.914,1.235 -2.914,3.006 0,1.886 1.241,3.017 2.748,3.017" /></g><g
           transform="translate(43.3191,18.9277)"
           id="g342"><path
             id="path344"
             style="fill:#404490;fill-opacity:1;fill-rule:nonzero;stroke:none"
             d="m 0,0 c 0.931,0 1.806,0.686 1.806,2.32 0,1.166 -0.577,2.308 -1.773,2.308 -0.986,0 -1.794,-0.857 -1.794,-2.308 C -1.761,0.903 -1.042,0 0,0 m -0.033,5.326 c 1.351,0 1.817,-1.086 1.817,-1.086 h 0.022 c 0,0 -0.022,0.195 -0.022,0.434 V 7.475 H 2.537 V -0.56 H 1.806 v 0.606 c 0,0.251 0.022,0.411 0.022,0.411 H 1.806 c 0,0 -0.454,-1.154 -1.917,-1.154 -1.495,0 -2.426,1.234 -2.426,3.017 0,1.817 1.041,3.006 2.504,3.006" /></g><path
           id="path346"
           style="fill:#404490;fill-opacity:1;fill-rule:nonzero;stroke:none"
           d="m 47.916,21.968 h 3.146 V 21.26 h -3.146 z" /><g
           transform="translate(53.1224,24.1162)"
           id="g348"><path
             id="path350"
             style="fill:#404490;fill-opacity:1;fill-rule:nonzero;stroke:none"
             d="m 0,0 h 0.742 v -1.017 c 0,-0.252 -0.022,-0.457 -0.022,-0.457 h 0.022 c 0.266,0.869 0.886,1.531 1.762,1.531 0.155,0 0.299,-0.034 0.299,-0.034 v -0.766 c 0,0 -0.133,0.023 -0.277,0.023 -0.787,0 -1.374,-0.64 -1.617,-1.486 C 0.798,-2.571 0.753,-2.96 0.753,-3.326 v -2.423 l -0.753,0 z" /></g><g
           transform="translate(60.9212,21.8423)"
           id="g352"><path
             id="path354"
             style="fill:#404490;fill-opacity:1;fill-rule:nonzero;stroke:none"
             d="M 0,0 C -0.044,1.2 -0.753,1.76 -1.584,1.76 -2.515,1.76 -3.323,1.154 -3.501,0 Z m -1.562,2.411 c 1.54,0 2.326,-1.223 2.326,-2.651 0,-0.137 -0.022,-0.4 -0.022,-0.4 h -4.276 c 0.033,-1.475 1.008,-2.275 2.16,-2.275 1.02,0 1.695,0.698 1.695,0.698 l 0.344,-0.595 c 0,0 -0.809,-0.8 -2.061,-0.8 -1.662,0 -2.914,1.235 -2.914,3.006 0,1.886 1.241,3.017 2.748,3.017" /></g><g
           transform="translate(63.0701,26.4023)"
           id="g356"><path
             id="path358"
             style="fill:#404490;fill-opacity:1;fill-rule:nonzero;stroke:none"
             d="m 0,0 h 0.753 v -6.503 c 0,-0.754 0.332,-0.869 0.621,-0.869 0.099,0 0.188,0.012 0.188,0.012 v -0.698 c 0,0 -0.133,-0.023 -0.277,-0.023 C 0.82,-8.081 0,-7.932 0,-6.675 Z" /></g><g
           transform="translate(69.7835,21.8423)"
           id="g360"><path
             id="path362"
             style="fill:#404490;fill-opacity:1;fill-rule:nonzero;stroke:none"
             d="M 0,0 C -0.044,1.2 -0.753,1.76 -1.584,1.76 -2.515,1.76 -3.323,1.154 -3.501,0 Z m -1.562,2.411 c 1.54,0 2.326,-1.223 2.326,-2.651 0,-0.137 -0.022,-0.4 -0.022,-0.4 h -4.276 c 0.033,-1.475 1.008,-2.275 2.16,-2.275 1.02,0 1.695,0.698 1.695,0.698 l 0.344,-0.595 c 0,0 -0.809,-0.8 -2.061,-0.8 -1.662,0 -2.914,1.235 -2.914,3.006 0,1.886 1.241,3.017 2.748,3.017" /></g><g
           transform="translate(73.5496,18.8935)"
           id="g364"><path
             id="path366"
             style="fill:#404490;fill-opacity:1;fill-rule:nonzero;stroke:none"
             d="M 0,0 C 1.063,0 1.706,1.143 1.706,2.137 V 2.389 H 1.385 C 0.51,2.389 -1.241,2.354 -1.241,1.085 -1.241,0.548 -0.831,0 0,0 m 1.396,3.028 h 0.31 v 0.149 c 0,1.109 -0.587,1.486 -1.385,1.486 -0.919,0 -1.572,-0.549 -1.572,-0.549 l -0.355,0.594 c 0,0 0.731,0.652 1.983,0.652 1.34,0 2.082,-0.766 2.082,-2.206 v -3.68 h -0.72 v 0.629 c 0,0.285 0.023,0.48 0.023,0.48 H 1.739 c 0,0 -0.465,-1.246 -1.861,-1.246 -0.93,0 -1.894,0.56 -1.894,1.703 0,1.943 2.448,1.988 3.412,1.988" /></g><g
           transform="translate(77.7039,19.625)"
           id="g368"><path
             id="path370"
             style="fill:#404490;fill-opacity:1;fill-rule:nonzero;stroke:none"
             d="m 0,0 c 0,0 0.62,-0.697 1.662,-0.697 0.598,0 1.118,0.308 1.118,0.914 0,1.257 -3.002,0.949 -3.002,2.823 0,1.028 0.898,1.588 1.906,1.588 C 2.858,4.628 3.401,4 3.401,4 L 3.057,3.406 c 0,0 -0.476,0.525 -1.395,0.525 -0.565,0 -1.108,-0.251 -1.108,-0.891 0,-1.269 3.002,-0.926 3.002,-2.823 0,-0.937 -0.787,-1.612 -1.906,-1.612 -1.351,0 -2.06,0.835 -2.06,0.835 z" /></g><g
           transform="translate(86.577,21.8423)"
           id="g372"><path
             id="path374"
             style="fill:#404490;fill-opacity:1;fill-rule:nonzero;stroke:none"
             d="M 0,0 C -0.044,1.2 -0.753,1.76 -1.584,1.76 -2.515,1.76 -3.324,1.154 -3.5,0 Z m -1.562,2.411 c 1.54,0 2.326,-1.223 2.326,-2.651 0,-0.137 -0.022,-0.4 -0.022,-0.4 h -4.276 c 0.034,-1.475 1.008,-2.275 2.16,-2.275 1.02,0 1.695,0.698 1.695,0.698 l 0.344,-0.595 c 0,0 -0.809,-0.8 -2.061,-0.8 -1.662,0 -2.914,1.235 -2.914,3.006 0,1.886 1.241,3.017 2.748,3.017" /></g><g
           transform="translate(94.2981,24.2534)"
           id="g376"><path
             id="path378"
             style="fill:#404490;fill-opacity:1;fill-rule:nonzero;stroke:none"
             d="M 0,0 C 1.362,0 2.038,-0.823 2.038,-0.823 L 1.65,-1.406 c 0,0 -0.62,0.698 -1.628,0.698 -1.218,0 -2.171,-0.938 -2.171,-2.309 0,-1.349 0.963,-2.309 2.193,-2.309 1.13,0 1.784,0.812 1.784,0.812 L 2.171,-5.12 c 0,0 -0.753,-0.903 -2.171,-0.903 -1.651,0 -2.925,1.223 -2.925,3.006 C -2.925,-1.246 -1.64,0 0,0" /></g><g
           transform="translate(99.4046,18.8935)"
           id="g380"><path
             id="path382"
             style="fill:#404490;fill-opacity:1;fill-rule:nonzero;stroke:none"
             d="M 0,0 C 1.063,0 1.706,1.143 1.706,2.137 V 2.389 H 1.385 C 0.51,2.389 -1.241,2.354 -1.241,1.085 -1.241,0.548 -0.831,0 0,0 m 1.396,3.028 h 0.31 v 0.149 c 0,1.109 -0.587,1.486 -1.385,1.486 -0.919,0 -1.572,-0.549 -1.572,-0.549 l -0.355,0.594 c 0,0 0.731,0.652 1.983,0.652 1.34,0 2.082,-0.766 2.082,-2.206 v -3.68 h -0.72 v 0.629 c 0,0.285 0.023,0.48 0.023,0.48 H 1.739 c 0,0 -0.465,-1.246 -1.861,-1.246 -0.93,0 -1.894,0.56 -1.894,1.703 0,1.943 2.448,1.988 3.412,1.988" /></g><g
           transform="translate(106.1067,18.9165)"
           id="g384"><path
             id="path386"
             style="fill:#404490;fill-opacity:1;fill-rule:nonzero;stroke:none"
             d="m 0,0 c 0.986,0 1.794,0.857 1.794,2.32 0,1.406 -0.72,2.308 -1.761,2.308 -0.93,0 -1.805,-0.685 -1.805,-2.319 C -1.772,1.154 -1.152,0 0,0 m -2.504,5.2 h 0.72 V 4.64 c 0,-0.251 -0.022,-0.446 -0.022,-0.446 h 0.022 c 0,0 0.454,1.143 1.928,1.143 1.496,0 2.426,-1.234 2.426,-3.017 0,-1.818 -1.052,-3.006 -2.492,-3.006 -1.341,0 -1.828,1.097 -1.828,1.097 h -0.022 c 0,0 0.022,-0.205 0.022,-0.503 v -2.742 h -0.754 z" /></g><g
           transform="translate(110.0833,19.625)"
           id="g388"><path
             id="path390"
             style="fill:#404490;fill-opacity:1;fill-rule:nonzero;stroke:none"
             d="m 0,0 c 0,0 0.62,-0.697 1.662,-0.697 0.598,0 1.118,0.308 1.118,0.914 0,1.257 -3.002,0.949 -3.002,2.823 0,1.028 0.898,1.588 1.906,1.588 C 2.858,4.628 3.401,4 3.401,4 L 3.057,3.406 c 0,0 -0.476,0.525 -1.395,0.525 -0.565,0 -1.108,-0.251 -1.108,-0.891 0,-1.269 3.002,-0.926 3.002,-2.823 0,-0.937 -0.786,-1.612 -1.906,-1.612 -1.351,0 -2.06,0.835 -2.06,0.835 z" /></g><g
           transform="translate(114.9578,24.1162)"
           id="g392"><path
             id="path394"
             style="fill:#404490;fill-opacity:1;fill-rule:nonzero;stroke:none"
             d="m 0,0 h 0.753 v -3.451 c 0,-0.903 0.133,-1.703 1.207,-1.703 1.274,0 2.061,1.154 2.061,2.4 V 0 H 4.774 V -5.749 H 4.043 v 0.857 c 0,0.252 0.022,0.458 0.022,0.458 H 4.043 C 3.822,-4.994 3.09,-5.886 1.861,-5.886 0.554,-5.886 0,-5.154 0,-3.657 Z" /></g><g
           transform="translate(121.4935,26.4023)"
           id="g396"><path
             id="path398"
             style="fill:#404490;fill-opacity:1;fill-rule:nonzero;stroke:none"
             d="m 0,0 h 0.753 v -6.503 c 0,-0.754 0.332,-0.869 0.621,-0.869 0.099,0 0.188,0.012 0.188,0.012 v -0.698 c 0,0 -0.133,-0.023 -0.277,-0.023 C 0.82,-8.081 0,-7.932 0,-6.675 Z" /></g><g
           transform="translate(128.2063,21.8423)"
           id="g400"><path
             id="path402"
             style="fill:#404490;fill-opacity:1;fill-rule:nonzero;stroke:none"
             d="M 0,0 C -0.044,1.2 -0.753,1.76 -1.584,1.76 -2.515,1.76 -3.323,1.154 -3.501,0 Z m -1.562,2.411 c 1.54,0 2.326,-1.223 2.326,-2.651 0,-0.137 -0.022,-0.4 -0.022,-0.4 h -4.276 c 0.033,-1.475 1.008,-2.275 2.16,-2.275 1.02,0 1.695,0.698 1.695,0.698 l 0.344,-0.595 c 0,0 -0.809,-0.8 -2.061,-0.8 -1.662,0 -2.914,1.235 -2.914,3.006 0,1.886 1.241,3.017 2.748,3.017" /></g><g
           transform="translate(130.3665,19.625)"
           id="g404"><path
             id="path406"
             style="fill:#404490;fill-opacity:1;fill-rule:nonzero;stroke:none"
             d="m 0,0 c 0,0 0.62,-0.697 1.662,-0.697 0.598,0 1.118,0.308 1.118,0.914 0,1.257 -3.002,0.949 -3.002,2.823 0,1.028 0.898,1.588 1.906,1.588 C 2.858,4.628 3.401,4 3.401,4 L 3.057,3.406 c 0,0 -0.476,0.525 -1.395,0.525 -0.565,0 -1.108,-0.251 -1.108,-0.891 0,-1.269 3.002,-0.926 3.002,-2.823 0,-0.937 -0.786,-1.612 -1.906,-1.612 -1.351,0 -2.06,0.835 -2.06,0.835 z" /></g></g></g><g
       id="g408"><g
         clip-path="url(#clipPath414)"
         id="g410"><g
           transform="translate(3.7781,21.7837)"
           id="g416"><path
             id="path418"
             style="fill:#404490;fill-opacity:1;fill-rule:nonzero;stroke:none"
             d="M 0,0 C -0.012,1.283 -0.444,1.871 -1.223,1.871 -2.027,1.871 -2.566,1.211 -2.71,0 Z m -1.211,2.555 c 1.451,0 2.003,-1.32 2.003,-2.687 0,-0.156 -0.012,-0.312 -0.024,-0.504 H -2.71 c 0.023,-1.631 0.767,-2.41 1.703,-2.41 0.551,0 1.091,0.228 1.463,0.623 l 0.228,-0.636 c -0.372,-0.395 -1.056,-0.707 -1.763,-0.707 -1.524,0 -2.435,1.295 -2.435,3.214 0,1.883 0.9,3.107 2.303,3.107" /></g><g
           transform="translate(7.6556,21.3398)"
           id="g420"><path
             id="path422"
             style="fill:#404490;fill-opacity:1;fill-rule:nonzero;stroke:none"
             d="m 0,0 -1.463,2.854 h 0.827 L 0.336,0.864 C 0.42,0.708 0.479,0.504 0.479,0.504 h 0.025 c 0,0 0.072,0.204 0.143,0.36 l 0.996,1.99 H 2.471 L 1.007,0 2.603,-3.178 H 1.787 L 0.66,-0.888 C 0.588,-0.72 0.528,-0.54 0.528,-0.54 H 0.504 c 0,0 -0.06,-0.168 -0.144,-0.348 l -1.128,-2.29 h -0.827 z" /></g><g
           transform="translate(12.1917,23.4629)"
           id="g424"><path
             id="path426"
             style="fill:#404490;fill-opacity:1;fill-rule:nonzero;stroke:none"
             d="M 0,0 H -0.611 V 0.684 H 0.012 V 2.398 H 0.78 V 0.684 H 1.919 V 0 H 0.78 v -3.035 c 0,-1.402 0.623,-1.595 1.019,-1.595 0.048,0 0.144,0 0.204,0.025 v -0.72 C 1.967,-5.337 1.835,-5.349 1.703,-5.349 1.127,-5.349 0,-5.122 0,-3.106 Z" /></g><g
           transform="translate(19.1858,21.7837)"
           id="g428"><path
             id="path430"
             style="fill:#404490;fill-opacity:1;fill-rule:nonzero;stroke:none"
             d="M 0,0 C -0.012,1.283 -0.443,1.871 -1.223,1.871 -2.027,1.871 -2.566,1.211 -2.71,0 Z m -1.211,2.555 c 1.451,0 2.003,-1.32 2.003,-2.687 0,-0.156 -0.012,-0.312 -0.024,-0.504 H -2.71 c 0.023,-1.631 0.767,-2.41 1.703,-2.41 0.551,0 1.091,0.228 1.463,0.623 l 0.228,-0.636 c -0.372,-0.395 -1.056,-0.707 -1.763,-0.707 -1.524,0 -2.435,1.295 -2.435,3.214 0,1.883 0.9,3.107 2.303,3.107" /></g><g
           transform="translate(22.032,24.1943)"
           id="g432"><path
             id="path434"
             style="fill:#404490;fill-opacity:1;fill-rule:nonzero;stroke:none"
             d="m 0,0 h 0.768 v -0.612 c 0,-0.216 -0.037,-0.371 -0.037,-0.371 h 0.024 c 0.18,0.42 0.732,1.127 1.835,1.127 1.116,0 1.559,-0.744 1.559,-1.919 V -6.033 H 3.358 v 4.09 c 0,0.66 -0.108,1.343 -0.947,1.343 -0.972,0 -1.632,-0.947 -1.632,-1.895 v -3.538 l -0.779,0 z" /></g><g
           transform="translate(30.4061,18.7251)"
           id="g436"><path
             id="path438"
             style="fill:#404490;fill-opacity:1;fill-rule:nonzero;stroke:none"
             d="m 0,0 c 0.864,0 1.416,0.732 1.416,2.447 0,1.247 -0.336,2.459 -1.38,2.459 -0.911,0 -1.415,-0.9 -1.415,-2.459 C -1.379,0.948 -0.935,0 0,0 m -0.083,5.613 c 0.719,0 1.234,-0.36 1.486,-0.947 h 0.024 c 0,0 -0.035,0.215 -0.035,0.467 V 7.868 H 2.171 V -0.563 H 1.416 v 0.503 c 0,0.264 0.036,0.456 0.036,0.456 H 1.427 c -0.203,-0.588 -0.695,-1.104 -1.583,-1.104 -1.367,0 -2.027,1.296 -2.027,3.167 0,1.907 0.744,3.154 2.1,3.154" /></g><g
           transform="translate(38.1697,21.7837)"
           id="g440"><path
             id="path442"
             style="fill:#404490;fill-opacity:1;fill-rule:nonzero;stroke:none"
             d="M 0,0 C -0.012,1.283 -0.444,1.871 -1.223,1.871 -2.027,1.871 -2.566,1.211 -2.71,0 Z m -1.211,2.555 c 1.451,0 2.003,-1.32 2.003,-2.687 0,-0.156 -0.012,-0.312 -0.024,-0.504 H -2.71 c 0.023,-1.631 0.767,-2.41 1.703,-2.41 0.551,0 1.091,0.228 1.463,0.623 l 0.228,-0.636 c -0.372,-0.395 -1.056,-0.707 -1.763,-0.707 -1.524,0 -2.435,1.295 -2.435,3.214 0,1.883 0.9,3.107 2.303,3.107" /></g><g
           transform="translate(42.91,18.7251)"
           id="g444"><path
             id="path446"
             style="fill:#404490;fill-opacity:1;fill-rule:nonzero;stroke:none"
             d="m 0,0 c 0.864,0 1.416,0.732 1.416,2.447 0,1.247 -0.336,2.459 -1.38,2.459 -0.911,0 -1.415,-0.9 -1.415,-2.459 C -1.379,0.948 -0.935,0 0,0 m -0.083,5.613 c 0.719,0 1.234,-0.36 1.486,-0.947 h 0.024 c 0,0 -0.035,0.215 -0.035,0.467 V 7.868 H 2.171 V -0.563 H 1.416 v 0.503 c 0,0.264 0.036,0.456 0.036,0.456 H 1.427 c -0.203,-0.588 -0.695,-1.104 -1.583,-1.104 -1.367,0 -2.027,1.296 -2.027,3.167 0,1.907 0.744,3.154 2.1,3.154" /></g><path
           id="path448"
           style="fill:#404490;fill-opacity:1;fill-rule:nonzero;stroke:none"
           d="M 47.387,21.939 H 50.05 V 21.195 H 47.387 Z" /><g
           transform="translate(52.3553,24.1943)"
           id="g450"><path
             id="path452"
             style="fill:#404490;fill-opacity:1;fill-rule:nonzero;stroke:none"
             d="m 0,0 h 0.768 v -0.923 c 0,-0.264 -0.025,-0.468 -0.025,-0.468 H 0.768 C 0.971,-0.6 1.571,0.06 2.23,0.06 2.327,0.06 2.398,0.048 2.482,0.024 v -0.792 c -0.047,0.012 -0.144,0.024 -0.252,0.024 -1.019,0 -1.451,-1.547 -1.451,-2.674 V -6.033 H 0 Z" /></g><g
           transform="translate(59.6976,21.7837)"
           id="g454"><path
             id="path456"
             style="fill:#404490;fill-opacity:1;fill-rule:nonzero;stroke:none"
             d="M 0,0 C -0.012,1.283 -0.443,1.871 -1.223,1.871 -2.027,1.871 -2.566,1.211 -2.71,0 Z m -1.211,2.555 c 1.451,0 2.003,-1.32 2.003,-2.687 0,-0.156 -0.012,-0.312 -0.024,-0.504 H -2.71 c 0.023,-1.631 0.767,-2.41 1.703,-2.41 0.551,0 1.091,0.228 1.463,0.623 l 0.228,-0.636 c -0.372,-0.395 -1.056,-0.707 -1.763,-0.707 -1.524,0 -2.435,1.295 -2.435,3.214 0,1.883 0.9,3.107 2.303,3.107" /></g><g
           transform="translate(62.5433,26.5927)"
           id="g458"><path
             id="path460"
             style="fill:#404490;fill-opacity:1;fill-rule:nonzero;stroke:none"
             d="m 0,0 h 0.792 v -6.824 c 0,-0.816 0.239,-0.936 0.515,-0.936 0.06,0 0.108,0 0.156,0.012 V -8.455 C 1.391,-8.467 1.319,-8.479 1.187,-8.479 0.731,-8.479 0,-8.323 0,-7.004 Z" /></g><g
           transform="translate(69.0574,21.7837)"
           id="g462"><path
             id="path464"
             style="fill:#404490;fill-opacity:1;fill-rule:nonzero;stroke:none"
             d="M 0,0 C -0.012,1.283 -0.444,1.871 -1.223,1.871 -2.027,1.871 -2.566,1.211 -2.71,0 Z m -1.211,2.555 c 1.451,0 2.003,-1.32 2.003,-2.687 0,-0.156 -0.012,-0.312 -0.024,-0.504 H -2.71 c 0.023,-1.631 0.767,-2.41 1.703,-2.41 0.551,0 1.091,0.228 1.463,0.623 l 0.228,-0.636 c -0.372,-0.395 -1.056,-0.707 -1.763,-0.707 -1.524,0 -2.435,1.295 -2.435,3.214 0,1.883 0.9,3.107 2.303,3.107" /></g><g
           transform="translate(73.1985,18.7373)"
           id="g466"><path
             id="path468"
             style="fill:#404490;fill-opacity:1;fill-rule:nonzero;stroke:none"
             d="m 0,0 c 0.899,0 1.343,1.175 1.343,2.003 v 0.504 h -0.3 c -0.695,0 -1.99,-0.06 -1.99,-1.343 C -0.947,0.492 -0.552,0 0,0 m 1.032,3.13 h 0.311 v 0.18 c 0,1.235 -0.431,1.595 -1.091,1.595 -0.444,0 -0.983,-0.179 -1.355,-0.444 l -0.24,0.624 c 0.42,0.324 1.067,0.516 1.643,0.516 1.223,0 1.823,-0.768 1.823,-2.315 v -3.862 h -0.72 v 0.528 c 0,0.3 0.024,0.516 0.024,0.516 H 1.403 c -0.252,-0.54 -0.743,-1.14 -1.547,-1.14 -0.767,0 -1.559,0.54 -1.559,1.776 0,1.895 1.811,2.026 2.735,2.026" /></g><g
           transform="translate(77.555,19.289)"
           id="g470"><path
             id="path472"
             style="fill:#404490;fill-opacity:1;fill-rule:nonzero;stroke:none"
             d="m 0,0 c 0.24,-0.216 0.72,-0.576 1.307,-0.576 0.6,0 1.008,0.372 1.008,0.96 0,1.439 -2.435,1.055 -2.435,3.01 0,0.996 0.648,1.655 1.727,1.655 0.456,0 0.948,-0.144 1.319,-0.432 L 2.663,3.958 C 2.387,4.174 1.979,4.354 1.595,4.354 1.056,4.354 0.647,4.03 0.647,3.43 c 0,-1.451 2.436,-1.055 2.436,-2.986 0,-0.924 -0.576,-1.715 -1.776,-1.715 -0.611,0 -1.199,0.24 -1.631,0.647 z" /></g><g
           transform="translate(85.8572,21.7837)"
           id="g474"><path
             id="path476"
             style="fill:#404490;fill-opacity:1;fill-rule:nonzero;stroke:none"
             d="M 0,0 C -0.012,1.283 -0.444,1.871 -1.223,1.871 -2.027,1.871 -2.566,1.211 -2.71,0 Z m -1.211,2.555 c 1.451,0 2.003,-1.32 2.003,-2.687 0,-0.156 -0.012,-0.312 -0.024,-0.504 H -2.71 c 0.023,-1.631 0.767,-2.41 1.703,-2.41 0.551,0 1.091,0.228 1.463,0.623 l 0.228,-0.636 c -0.372,-0.395 -1.056,-0.707 -1.763,-0.707 -1.524,0 -2.435,1.295 -2.435,3.214 0,1.883 0.9,3.107 2.303,3.107" /></g><g
           transform="translate(94.198,24.3383)"
           id="g478"><path
             id="path480"
             style="fill:#404490;fill-opacity:1;fill-rule:nonzero;stroke:none"
             d="M 0,0 C 0.551,0 1.151,-0.168 1.559,-0.6 L 1.247,-1.248 c -0.3,0.324 -0.731,0.54 -1.235,0.54 -1.104,0 -1.823,-1.007 -1.823,-2.459 0,-1.427 0.695,-2.446 1.835,-2.446 0.527,0 1.043,0.24 1.403,0.635 l 0.24,-0.647 c -0.324,-0.384 -0.996,-0.696 -1.739,-0.696 -1.499,0 -2.543,1.272 -2.543,3.154 C -2.615,-1.308 -1.595,0 0,0" /></g><g
           transform="translate(99.0462,18.7373)"
           id="g482"><path
             id="path484"
             style="fill:#404490;fill-opacity:1;fill-rule:nonzero;stroke:none"
             d="m 0,0 c 0.899,0 1.343,1.175 1.343,2.003 v 0.504 h -0.3 c -0.695,0 -1.99,-0.06 -1.99,-1.343 C -0.947,0.492 -0.552,0 0,0 m 1.032,3.13 h 0.311 v 0.18 c 0,1.235 -0.431,1.595 -1.091,1.595 -0.444,0 -0.983,-0.179 -1.355,-0.444 l -0.24,0.624 c 0.42,0.324 1.067,0.516 1.643,0.516 1.223,0 1.823,-0.768 1.823,-2.315 v -3.862 h -0.72 v 0.528 c 0,0.3 0.024,0.516 0.024,0.516 H 1.403 c -0.252,-0.54 -0.743,-1.14 -1.547,-1.14 -0.767,0 -1.559,0.54 -1.559,1.776 0,1.895 1.811,2.026 2.735,2.026" /></g><g
           transform="translate(105.6341,18.7251)"
           id="g486"><path
             id="path488"
             style="fill:#404490;fill-opacity:1;fill-rule:nonzero;stroke:none"
             d="m 0,0 c 0.899,0 1.415,0.9 1.415,2.447 0,1.499 -0.456,2.459 -1.379,2.459 -0.876,0 -1.415,-0.732 -1.415,-2.459 C -1.379,1.2 -1.067,0 0,0 m -2.135,5.469 h 0.743 V 4.978 c 0,-0.265 -0.035,-0.456 -0.035,-0.456 h 0.024 c 0.192,0.551 0.647,1.091 1.583,1.091 1.367,0 2.039,-1.295 2.039,-3.154 0,-1.919 -0.768,-3.167 -2.099,-3.167 -0.66,0 -1.26,0.349 -1.487,0.96 h -0.025 c 0,0 0.037,-0.216 0.037,-0.492 v -2.722 h -0.78 z" /></g><g
           transform="translate(109.847,19.289)"
           id="g490"><path
             id="path492"
             style="fill:#404490;fill-opacity:1;fill-rule:nonzero;stroke:none"
             d="m 0,0 c 0.24,-0.216 0.72,-0.576 1.307,-0.576 0.6,0 1.008,0.372 1.008,0.96 0,1.439 -2.435,1.055 -2.435,3.01 0,0.996 0.648,1.655 1.727,1.655 0.456,0 0.948,-0.144 1.319,-0.432 L 2.663,3.958 C 2.387,4.174 1.979,4.354 1.595,4.354 1.056,4.354 0.647,4.03 0.647,3.43 c 0,-1.451 2.436,-1.055 2.436,-2.986 0,-0.924 -0.576,-1.715 -1.776,-1.715 -0.611,0 -1.199,0.24 -1.631,0.647 z" /></g><g
           transform="translate(114.8865,24.1943)"
           id="g494"><path
             id="path496"
             style="fill:#404490;fill-opacity:1;fill-rule:nonzero;stroke:none"
             d="m 0,0 h 0.78 v -4.078 c 0,-0.672 0.108,-1.355 0.959,-1.355 0.9,0 1.583,0.923 1.583,1.883 V 0 h 0.78 V -6.033 H 3.334 v 0.612 c 0,0.216 0.036,0.384 0.036,0.384 H 3.346 C 3.167,-5.469 2.626,-6.177 1.559,-6.177 0.432,-6.177 0,-5.421 0,-4.258 Z" /></g><g
           transform="translate(121.367,26.5927)"
           id="g498"><path
             id="path500"
             style="fill:#404490;fill-opacity:1;fill-rule:nonzero;stroke:none"
             d="m 0,0 h 0.792 v -6.824 c 0,-0.816 0.239,-0.936 0.515,-0.936 0.06,0 0.108,0 0.156,0.012 V -8.455 C 1.391,-8.467 1.319,-8.479 1.187,-8.479 0.731,-8.479 0,-8.323 0,-7.004 Z" /></g><g
           transform="translate(127.8807,21.7837)"
           id="g502"><path
             id="path504"
             style="fill:#404490;fill-opacity:1;fill-rule:nonzero;stroke:none"
             d="M 0,0 C -0.012,1.283 -0.444,1.871 -1.223,1.871 -2.027,1.871 -2.566,1.211 -2.71,0 Z m -1.211,2.555 c 1.451,0 2.003,-1.32 2.003,-2.687 0,-0.156 -0.012,-0.312 -0.024,-0.504 H -2.71 c 0.023,-1.631 0.767,-2.41 1.703,-2.41 0.551,0 1.091,0.228 1.463,0.623 l 0.228,-0.636 c -0.372,-0.395 -1.056,-0.707 -1.763,-0.707 -1.524,0 -2.435,1.295 -2.435,3.214 0,1.883 0.9,3.107 2.303,3.107" /></g><g
           transform="translate(130.6307,19.289)"
           id="g506"><path
             id="path508"
             style="fill:#404490;fill-opacity:1;fill-rule:nonzero;stroke:none"
             d="m 0,0 c 0.24,-0.216 0.72,-0.576 1.307,-0.576 0.6,0 1.008,0.372 1.008,0.96 0,1.439 -2.435,1.055 -2.435,3.01 0,0.996 0.648,1.655 1.727,1.655 0.456,0 0.948,-0.144 1.319,-0.432 L 2.663,3.958 C 2.387,4.174 1.979,4.354 1.595,4.354 1.056,4.354 0.647,4.03 0.647,3.43 c 0,-1.451 2.436,-1.055 2.436,-2.986 0,-0.924 -0.576,-1.715 -1.776,-1.715 -0.611,0 -1.199,0.24 -1.631,0.647 z" /></g></g></g></g></svg>